<?xml version="1.0" encoding="UTF-8"?>
<svg width="360px" height="360px" viewBox="0 0 360 360" version="1.1" xmlns="http://www.w3.org/2000/svg" xmlns:xlink="http://www.w3.org/1999/xlink">
    <!-- Generator: Sketch 54.1 (76490) - https://sketchapp.com -->
    <title>broken-link</title>
    <desc>Created with Sketch.</desc>
    <g id="404-outage-page" stroke="none" stroke-width="1" fill="none" fill-rule="evenodd">
        <g id="400-outage-page-desktop" transform="translate(-230.000000, -179.000000)">
            <g id="Connectivity/Desasociar" transform="translate(230.000000, 179.000000)">
                <g id="Shape">
                    <path d="M360,180 C360,279.408 279.414,360 180,360 C80.586,360 0,279.408 0,180 C0,80.592 80.586,0 180,0 C279.414,0 360,80.586 360,180 Z" fill="#D93851" fill-rule="nonzero"></path>
                    <path d="M167.754,268.326 L109.758,268.326 C85.758,268.326 66.264,247.182 66.264,221.202 C66.264,195.222 85.77,174.078 109.758,174.078 L166.158,174.078 L179.556,187.974 L109.782,188.574 C93.792,188.574 80.784,203.208 80.784,221.196 C80.784,239.184 93.768,253.8 109.758,253.8 L167.754,253.8 C179.208,253.8 193.452,239.19 197.934,227.244 L210.648,239.604 C202.494,255.942 182.934,268.326 167.754,268.326 Z" fill="#A22A3D" fill-rule="nonzero"></path>
                    <path d="M164.13,253.8 L106.134,253.8 C82.134,253.8 62.634,232.662 62.634,206.676 C62.634,180.69 82.146,159.6 106.134,159.6 L152.334,159.6 L166.608,174.096 L106.134,174.096 C90.144,174.096 77.136,188.73 77.136,206.718 C77.136,224.706 90.144,239.346 106.134,239.346 L164.13,239.346 C175.578,239.346 185.88,231.624 190.362,219.684 L201.492,230.862 C193.8,244.572 179.31,253.8 164.13,253.8 Z" fill="#FFFFFF" fill-rule="nonzero"></path>
                    <path d="M203.4,130.584 L261.396,130.584 C285.396,130.584 304.89,151.722 304.89,177.702 C304.89,203.682 285.384,224.826 261.396,224.826 L222.18,224.826 L208.704,210.93 L261.396,210.33 C277.386,210.33 290.394,195.696 290.394,177.702 C290.394,159.708 277.386,145.08 261.396,145.08 L203.4,145.08 C191.946,145.08 187.2,151.152 182.706,163.08 L173.544,153.852 C181.698,137.55 188.22,130.584 203.4,130.584 Z" fill="#A22A3D" fill-rule="nonzero"></path>
                    <path d="M199.8,116.082 L257.796,116.082 C281.796,116.082 301.29,137.226 301.29,163.206 C301.29,189.186 281.778,210.33 257.796,210.33 L211.596,210.33 L197.328,195.828 L257.772,195.828 C273.762,195.828 286.8,181.2 286.8,163.2 C286.8,145.2 273.792,130.578 257.802,130.578 L199.8,130.578 C188.346,130.578 178.05,138.294 173.568,150.234 L162.438,139.056 C170.136,125.334 184.59,116.082 199.8,116.082 Z" fill="#FFFFFF" fill-rule="nonzero"></path>
                    <path d="M77.52,78.846 L100.476,101.802 C102.59843,103.926087 106.040913,103.92743 108.165,101.805 C110.289087,99.6825697 110.29043,96.2400871 108.168,94.116 L85.2,71.16 C83.0775697,69.0359129 79.6350871,69.0345697 77.511,71.157 C75.3869129,73.2794303 75.3855697,76.7219129 77.508,78.846" fill="#FFFFFF" fill-rule="nonzero"></path>
                    <path d="M64.446,130.584 L97.074,130.584 C100.007585,130.486552 102.335326,128.080203 102.335326,125.145 C102.335326,122.209797 100.007585,119.803448 97.074,119.706 L64.446,119.706 C61.5124147,119.803448 59.1846737,122.209797 59.1846737,125.145 C59.1846737,128.080203 61.5124147,130.486552 64.446,130.584" fill="#FFFFFF" fill-rule="nonzero"></path>
                    <path d="M126.072,50.838 L126.072,83.46 C126.072,86.4622199 128.50578,88.896 131.508,88.896 C134.51022,88.896 136.944,86.4622199 136.944,83.46 L136.944,50.838 C136.944,47.8357801 134.51022,45.402 131.508,45.402 C128.50578,45.402 126.072,47.8357801 126.072,50.838" fill="#FFFFFF" fill-rule="nonzero"></path>
                    <path d="M274.296,300.12 L251.34,277.164 C249.215913,275.04157 245.77343,275.042913 243.651,277.167 C241.52857,279.291087 241.529913,282.73357 243.654,284.856 L266.61,307.8 C267.984043,309.172972 269.986184,309.708606 271.862234,309.205136 C273.738284,308.701665 275.203227,307.235578 275.705234,305.359136 C276.20724,303.482693 275.670043,301.480972 274.296,300.108" fill="#FFFFFF" fill-rule="nonzero"></path>
                    <path d="M289.2,246.6 L256.56,246.6 C253.55778,246.6 251.124,249.03378 251.124,252.036 C251.124,255.03822 253.55778,257.472 256.56,257.472 L289.2,257.472 C292.20222,257.472 294.636,255.03822 294.636,252.036 C294.636,249.03378 292.20222,246.6 289.2,246.6" fill="#FFFFFF" fill-rule="nonzero"></path>
                    <path d="M227.562,326.316 L227.562,293.694 C227.562,290.69178 225.12822,288.258 222.126,288.258 C219.12378,288.258 216.69,290.69178 216.69,293.694 L216.69,326.316 C216.69,329.31822 219.12378,331.752 222.126,331.752 C225.12822,331.752 227.562,329.31822 227.562,326.316" fill="#FFFFFF" fill-rule="nonzero"></path>
                </g>
            </g>
        </g>
    </g>
</svg>